<svg width="16" height="16" viewBox="0 0 16 16" fill="none" xmlns="http://www.w3.org/2000/svg">
<path d="M14.9547 2.46562C14.566 2.01777 14.0917 1.65668 13.5615 1.40475C13.0312 1.15282 12.4561 1.01542 11.872 1.00107C11.2884 0.987936 10.7081 1.09589 10.1661 1.31846C9.6241 1.54103 9.13142 1.87364 8.71761 2.29635L8.02938 2.99551L7.4917 2.4509C5.82132 0.728766 3.09708 0.581575 1.4267 2.13444C0.991985 2.53478 0.641384 3.02194 0.396334 3.56613C0.151283 4.11031 0.0169337 4.7001 0.00149995 5.29941C-0.0139337 5.89872 0.0898728 6.49496 0.306572 7.05168C0.523272 7.6084 0.848309 8.1139 1.26181 8.53726L7.21928 14.653C7.32528 14.763 7.45145 14.8502 7.5905 14.9098C7.72955 14.9693 7.87872 15 8.02938 15C8.18005 15 8.32922 14.9693 8.46827 14.9098C8.60732 14.8502 8.73349 14.763 8.83948 14.653L14.6464 8.69181C16.324 6.97703 16.4602 4.1804 14.9547 2.46562Z" fill="#999999"/>
</svg>
