<svg width="98" height="70" viewBox="0 0 98 70" fill="none" xmlns="http://www.w3.org/2000/svg">
<g clip-path="url(#clip0_1_149)">
<path d="M37.8812 19.7437L29.2847 34.6222H46.4777L37.8812 19.7437Z" fill="white"/>
<path d="M22.247 0L11.0999 19.3185V34.6222H28.6235V19.224L39.7234 0H22.247Z" fill="white"/>
<path d="M47.1392 69.9526H66.7411L47.1392 35.9917V69.9526Z" fill="white"/>
<path d="M28.6707 35.3304H11.0999V69.9526H28.6707V35.3304Z" fill="white"/>
<path d="M79.5411 35.3304C69.9999 35.3304 62.2064 43.124 62.2064 52.6651C62.2064 62.2063 69.9999 69.9998 79.5411 69.9998C89.0823 69.9998 96.8758 62.2063 96.8758 52.6651C96.8758 43.0767 89.1295 35.3304 79.5411 35.3304Z" fill="white"/>
<path d="M29.3322 35.3304V69.9526C38.8733 69.9526 46.6668 62.1591 46.6668 52.6179C46.6668 43.0767 38.8733 35.3304 29.3322 35.3304Z" fill="white"/>
<path d="M47.2808 34.6222H69.0082L49.1702 0.236206L38.3065 19.0824L47.2808 34.6222Z" fill="white"/>
<path d="M47.5643 35.3304L57.1999 52.0511C60.7896 50.9647 63.2458 47.6584 63.2458 43.8797C63.2458 39.1564 59.4199 35.3304 54.6965 35.3304H47.5643Z" fill="white"/>
<path d="M0 0L10.722 18.61L21.444 0H0Z" fill="white"/>
</g>
<defs>
<clipPath id="clip0_1_149">
<rect width="97.3913" height="70" fill="white"/>
</clipPath>
</defs>
</svg>
