<svg width="48" height="48" viewBox="0 0 48 48" fill="none" xmlns="http://www.w3.org/2000/svg">
<path d="M24 46.5C36.4264 46.5 46.5 36.4264 46.5 24C46.5 11.5736 36.4264 1.5 24 1.5C11.5736 1.5 1.5 11.5736 1.5 24C1.5 36.4264 11.5736 46.5 24 46.5Z" stroke="white" stroke-width="1.5" stroke-linecap="round" stroke-linejoin="round"/>
<path d="M24 31.5C29.1777 31.5 33.375 27.3027 33.375 22.125C33.375 16.9473 29.1777 12.75 24 12.75C18.8223 12.75 14.625 16.9473 14.625 22.125C14.625 27.3027 18.8223 31.5 24 31.5Z" stroke="white" stroke-width="1.5" stroke-linecap="round" stroke-linejoin="round"/>
<path d="M8.95312 40.7343C10.3639 37.9556 12.5165 35.6219 15.1724 33.9917C17.8283 32.3615 20.8837 31.4985 24 31.4985C27.1163 31.4985 30.1717 32.3615 32.8276 33.9917C35.4835 35.6219 37.6361 37.9556 39.0469 40.7343" stroke="white" stroke-width="1.5" stroke-linecap="round" stroke-linejoin="round"/>
</svg>
